<svg width="14" height="14" viewBox="0 0 24 24" fill="currentColor" xmlns="http://www.w3.org/2000/svg">
<g clip-path="url(#clip0_64817_318840)">
<path d="M15.4141 4H20V8.58594L23.4141 12L20 15.4141V20H15.4141L12 23.4141L8.58594 20H4V15.4141L0.585938 12L4 8.58594V4H8.58594L12 0.585938L15.4141 4ZM9.41406 6H6V9.41406L3.41406 12L6 14.5859V18H9.41406L12 20.5859L14.5859 18H18V14.5859L20.5859 12L18 9.41406V6H14.5859L12 3.41406L9.41406 6ZM14.0498 7.0498H16.9492V9.94922L19 12L16.9502 14.0498V16.9502H14.0498L12 19L9.9502 16.9502H7.05078V14.0508L5 12L7.05078 9.94922V7.05078H9.94922L12 5L14.0498 7.0498ZM12 9C10.3431 9 9 10.3431 9 12C9 13.6569 10.3431 15 12 15C13.6569 15 15 13.6569 15 12C15 10.3431 13.6569 9 12 9Z" fill="currentColor"/>
</g>
<defs>
<clipPath id="clip0_64817_318840">
<rect width="24" height="24" fill="white"/>
</clipPath>
</defs>
</svg>
